<?xml version="1.0" encoding="utf-8"?>
<!-- Generator: Adobe Illustrator 24.1.2, SVG Export Plug-In . SVG Version: 6.00 Build 0)  -->
<svg version="1.1" id="Layer_1" xmlns="http://www.w3.org/2000/svg" xmlns:xlink="http://www.w3.org/1999/xlink" x="0px" y="0px"
	 viewBox="0 0 486 150" style="enable-background:new 0 0 486 150;" xml:space="preserve">
<style type="text/css">
	.st0{fill:#FFFFFF;stroke:#002E50;stroke-width:2;stroke-miterlimit:10;}
	.st1{clip-path:url(#SVGID_2_);}
	.st2{fill:#002E50;}
	.st3{fill:#FFFFFF;}
</style>
<path class="st0" d="M438,96.3H241.8c-26,0-47-21-47-47V48c0-26,21-47,47-47H438c26,0,47,21,47,47v1.3C485,75.3,463.9,96.3,438,96.3
	z"/>
<g>
	<g>
		<defs>
			<rect id="SVGID_1_" width="312" height="150"/>
		</defs>
		<clipPath id="SVGID_2_">
			<use xlink:href="#SVGID_1_"  style="overflow:visible;"/>
		</clipPath>
		<g class="st1">
			<path class="st2" d="M311.8,15v67.4c0,8.3-6.7,14.9-14.9,14.9H91.4l-59.7,52.5l10.1-52.5H15.2c-8.3,0-14.9-6.7-14.9-14.9V15
				C0.2,6.7,6.9,0,15.2,0h281.6C305.1,0,311.8,6.7,311.8,15"/>
		</g>
	</g>
</g>
<g>
	<g transform="translate(27.000003, 138.749991)">
		<g>
			<path class="st3" d="M12.3-56.6c-6.4,0-10.9-1.9-13.5-5.7s-3.9-9.1-3.9-15.8V-101c0-7.1,1.3-12.5,3.8-16.1
				c2.6-3.7,7.1-5.5,13.6-5.5c5.8,0,10,1.6,12.5,4.7s3.8,7.8,3.8,13.9v5.1H20v-4.6c0-3-0.1-5.3-0.4-6.9s-0.9-2.9-2-3.8
				c-1.1-1-2.8-1.4-5.3-1.4c-2.4,0-4.3,0.5-5.5,1.6c-1.2,1-2,2.5-2.4,4.3C4.2-108,4-105.5,4-102.4v25.7c0,3.3,0.3,5.9,0.8,7.8
				s1.4,3.2,2.6,4s2.9,1.2,5,1.2c2.3,0,4-0.5,5.1-1.5s1.8-2.4,2.1-4.2c0.3-1.8,0.4-4.2,0.4-7.2v-4.8h8.6v4.8
				c0,6.4-1.2,11.4-3.6,14.8C22.5-58.4,18.3-56.6,12.3-56.6z"/>
		</g>
	</g>
</g>
<g>
	<g transform="translate(57.899975, 138.749991)">
		<g>
			<path class="st3" d="M22.9-56.6c-6.3,0-10.9-1.8-13.6-5.4c-2.8-3.6-4.1-8.8-4.1-15.6v-24.6c0-6.7,1.4-11.8,4.2-15.3
				s7.3-5.2,13.6-5.2s10.8,1.8,13.5,5.3c2.8,3.5,4.1,8.6,4.1,15.2v24.6c0,6.7-1.4,11.9-4.2,15.5C33.7-58.4,29.2-56.6,22.9-56.6z
				 M22.9-63.8c3.4,0,5.6-1,6.8-3s1.8-5,1.8-9v-28.4c0-3.9-0.6-6.9-1.8-8.8c-1.2-1.9-3.4-2.8-6.8-2.8s-5.7,0.9-6.9,2.8
				s-1.8,4.8-1.8,8.8v28.4c0,4,0.6,7,1.8,9C17.2-64.7,19.5-63.8,22.9-63.8z"/>
		</g>
	</g>
</g>
<g>
	<g transform="translate(90.239947, 138.749991)">
		<g>
			<path class="st3" d="M17.1-122.2h6.2l18.4,43v-43h7.5v64.8h-5.8l-18.6-44.3v44.3h-7.7C17.1-57.4,17.1-122.2,17.1-122.2z"/>
		</g>
	</g>
</g>
<g>
	<g transform="translate(121.919915, 138.749991)">
		<g>
			<path class="st3" d="M27.7-122.2h6.2l18.4,43v-43h7.5v64.8H54l-18.6-44.3v44.3h-7.7V-122.2z"/>
		</g>
	</g>
</g>
<g>
	<g transform="translate(153.599883, 138.749991)">
		<g>
			<path class="st3" d="M38.3-122.2h25.1v6.7H47.3V-94h13v6.4h-13v23.8h16.2v6.5H38.3V-122.2z"/>
		</g>
	</g>
</g>
<g>
	<g transform="translate(178.019856, 138.749991)">
		<g>
			<path class="st3" d="M62.6-56.6c-6.4,0-10.9-1.9-13.5-5.7s-3.9-9.1-3.9-15.8V-101c0-7.1,1.3-12.5,3.8-16.1
				c2.6-3.7,7.1-5.5,13.6-5.5c5.8,0,10,1.6,12.5,4.7s3.8,7.8,3.8,13.9v5.1h-8.6v-4.6c0-3-0.1-5.3-0.4-6.9s-0.9-2.9-2-3.8
				c-1.1-1-2.8-1.4-5.3-1.4c-2.4,0-4.3,0.5-5.5,1.6c-1.2,1-2,2.5-2.4,4.3s-0.6,4.3-0.6,7.4v25.7c0,3.3,0.3,5.9,0.8,7.8
				s1.4,3.2,2.6,4c1.2,0.8,2.9,1.2,5,1.2c2.3,0,4-0.5,5.1-1.5s1.8-2.4,2.1-4.2c0.3-1.8,0.4-4.2,0.4-7.2v-4.8H79v4.8
				c0,6.4-1.2,11.4-3.6,14.8C72.9-58.4,68.7-56.6,62.6-56.6z"/>
		</g>
	</g>
</g>
<g>
	<g transform="translate(208.919829, 138.749991)">
		<g>
			<path class="st3" d="M63.8-115.4h-11v-6.7h30.6v6.7H72.9v58.1h-9v-58.1H63.8z"/>
		</g>
	</g>
</g>
<g>
	<g transform="translate(260.999987, 138.749991)">
		<g>
			<path class="st2" d="M74.1-122.2h9v28h16.6v-28h9v64.8h-9v-30.3H83.1v30.3h-9V-122.2z"/>
		</g>
	</g>
</g>
<g>
	<g transform="translate(294.659954, 138.749991)">
		<g>
			<path class="st2" d="M102-56.6c-4.5,0-8.1-0.9-10.6-2.7s-4.3-4.4-5.2-7.6c-1-3.3-1.4-7.3-1.4-12.2v-43h8.6v43.4
				c0,4.9,0.6,8.6,1.7,11.2c1.2,2.6,3.5,3.8,6.9,3.8c3.5,0,5.8-1.3,6.9-3.8c1.2-2.6,1.7-6.3,1.7-11.2v-43.4h8.6v43
				c0,4.9-0.5,9-1.4,12.2c-1,3.2-2.7,5.8-5.2,7.6C110-57.5,106.5-56.6,102-56.6z"/>
		</g>
	</g>
</g>
<g>
	<g transform="translate(327.23992, 138.749991)">
		<g>
			<path class="st2" d="M96.1-122.2H111c5.9,0,10.2,1.3,13,4c2.8,2.6,4.3,6.7,4.3,12.3c0,8.3-3.1,12.8-9.3,13.7
				c3.8,0.9,6.6,2.7,8.4,5.4c1.8,2.7,2.6,6.4,2.6,11c0,5.8-1.4,10.4-4.1,13.6c-2.7,3.3-6.9,4.9-12.5,4.9H96.1V-122.2z M110.5-95.1
				c3.7,0,6.3-0.8,7.8-2.4c1.4-1.6,2.2-4.4,2.2-8.4c0-2.9-0.4-5-1.3-6.4s-2.2-2.2-4-2.6s-4.4-0.6-7.8-0.6h-2.2v20.3L110.5-95.1
				L110.5-95.1z M111.3-63.8c2.7,0,4.7-0.4,6.2-1.2s2.5-2.1,3.1-3.8c0.6-1.7,0.9-4,0.9-7c0-4.2-0.9-7.3-2.6-9.3
				c-1.7-2.1-4.5-3.1-8.3-3.1h-5.4v24.4C105.2-63.8,111.3-63.8,111.3-63.8z"/>
		</g>
	</g>
</g>
</svg>
